<?xml version="1.0" encoding="UTF-8"?>
<svg version="1.1" xmlns="http://www.w3.org/2000/svg" width="240" height="68">
<path d="M0 0 C79.2 0 158.4 0 240 0 C240 22.44 240 44.88 240 68 C160.8 68 81.6 68 0 68 C0 45.56 0 23.12 0 0 Z " fill="#FCFAFA" transform="translate(0,0)"/>
<path d="M0 0 C5.86335866 4.76237865 8.36489576 9.75681487 9.2265625 17.265625 C9.04495816 23.20181701 6.03157674 27.95493218 2.14453125 32.28515625 C-3.03897221 37.09423057 -8.88294481 39.10313938 -16.03125 38.89453125 C-22.13964049 37.65752744 -27.57937994 33.77132919 -31.2734375 28.828125 C-34.51199357 23.18676926 -34.87880453 17.88013528 -34.2109375 11.453125 C-32.36184889 4.76342863 -28.10691903 0.8460955 -22.2109375 -2.546875 C-14.22933486 -5.8846361 -7.02104521 -4.86717875 0 0 Z " fill="#EC2127" transform="translate(103.2109375,18.546875)"/>
<path d="M0 0 C17.82 0 35.64 0 54 0 C54 8.58 54 17.16 54 26 C52.35 26 50.7 26 49 26 C48.67 25.67 48.34 25.34 48 25 C44.89914779 24.83958807 41.81812421 24.74036598 38.71484375 24.68359375 C37.78402481 24.66281265 36.85320587 24.64203156 35.8941803 24.62062073 C32.90869818 24.55502069 29.92312516 24.49619198 26.9375 24.4375 C24.91861024 24.3943247 22.8997298 24.35071075 20.88085938 24.30664062 C15.92066703 24.19932871 10.96038291 24.09809112 6 24 C6 24.66 6 25.32 6 26 C4.02 26 2.04 26 0 26 C0 17.42 0 8.84 0 0 Z " fill="#221F1F" transform="translate(9,10)"/>
<path d="M0 0 C17.82 0 35.64 0 54 0 C54 7.92 54 15.84 54 24 C36.18 24 18.36 24 0 24 C0 16.08 0 8.16 0 0 Z " fill="#EB2026" transform="translate(9,37)"/>
<path d="M0 0 C12.54 0 25.08 0 38 0 C38 4.62 38 9.24 38 14 C37.34 14 36.68 14 36 14 C35.69707031 13.38511719 35.39414063 12.77023438 35.08203125 12.13671875 C31.86553467 5.77129015 31.86553467 5.77129015 26 2 C23.525 1.505 23.525 1.505 21 1 C21 6.94 21 12.88 21 19 C22.65 18.34 24.3 17.68 26 17 C27.37189827 13.97017694 27.37189827 13.97017694 28 11 C28.66 11 29.32 11 30 11 C30 16.94 30 22.88 30 29 C29.34 29 28.68 29 28 29 C27.34 27.02 26.68 25.04 26 23 C24.35 22.67 22.7 22.34 21 22 C21 27.28 21 32.56 21 38 C27.29464599 37.14649373 27.29464599 37.14649373 32.375 33.75 C34.06499752 30.8900042 35.59897236 28.01220942 37 25 C37.66 25 38.32 25 39 25 C39 30.28 39 35.56 39 41 C26.13 41 13.26 41 0 41 C0 40.34 0 39.68 0 39 C1.32 39 2.64 39 4 39 C4 26.46 4 13.92 4 1 C2.68 0.67 1.36 0.34 0 0 Z " fill="#EB1A21" transform="translate(113,15)"/>
<path d="M0 0 C79.2 0 158.4 0 240 0 C240 0.99 240 1.98 240 3 C161.79 3 83.58 3 3 3 C3 24.45 3 45.9 3 68 C2.01 68 1.02 68 0 68 C0 45.56 0 23.12 0 0 Z " fill="#171415" transform="translate(0,0)"/>
<path d="M0 0 C8.58 0 17.16 0 26 0 C26 0.66 26 1.32 26 2 C24.35 2 22.7 2 21 2 C21 13.88 21 25.76 21 38 C29.37851609 37.83127294 29.37851609 37.83127294 32.875 34.875 C35.26751757 31.63806446 36.5991555 28.76016155 38 25 C38.66 25 39.32 25 40 25 C40 30.28 40 35.56 40 41 C26.8 41 13.6 41 0 41 C0 40.01 0 39.02 0 38 C1.32 38 2.64 38 4 38 C4 26.12 4 14.24 4 2 C2.68 2 1.36 2 0 2 C0 1.34 0 0.68 0 0 Z " fill="#EB181E" transform="translate(194,15)"/>
<path d="M0 0 C0 4.95 0 9.9 0 15 C-3.52953718 13.82348761 -3.78736494 13.11622456 -5.5625 10 C-7.21374548 6.91497173 -7.21374548 6.91497173 -10 5 C-11.37342831 4.9310528 -12.75002102 4.91532292 -14.125 4.9375 C-16.043125 4.9684375 -16.043125 4.9684375 -18 5 C-20.76389794 10.50586019 -21.46801875 14.81376572 -21.375 20.9375 C-21.38660156 21.69740234 -21.39820313 22.45730469 -21.41015625 23.24023438 C-21.38183098 28.7683833 -20.30669604 32.96465133 -18 38 C-15.17998673 39.41000664 -13.12992745 39.24548451 -10 39 C-6.98038889 37.87642377 -5.46315949 36.93928745 -4.0234375 34.01953125 C-3.27364236 32.03993193 -2.62951325 30.02106884 -2 28 C-1.34 28 -0.68 28 0 28 C-0.95800559 34.17381378 -2.34424723 36.98561282 -7.24609375 40.87109375 C-11.5336289 43.63077673 -16.09122969 43.44552859 -21 43 C-26.97565155 41.5513572 -31.97367626 39.10105899 -35.4140625 33.8359375 C-38.51657378 28.23755122 -40.3155054 23.38183199 -39 17 C-36.90151116 10.38323375 -33.68344118 5.56532097 -27.66796875 1.98828125 C-21.62264485 -0.25105542 -15.01312901 0.387098 -8.79296875 1.65234375 C-5.01646063 2.12242658 -3.81505026 0 0 0 Z " fill="#EB1B21" transform="translate(193,14)"/>
<path d="M0 0 C-0.33 0.66 -0.66 1.32 -1 2 C-1.08683445 4.77160626 -1.1155579 7.51774765 -1.09765625 10.2890625 C-1.09553383 11.51669815 -1.09553383 11.51669815 -1.09336853 12.76913452 C-1.0877629 15.38779325 -1.07520948 18.00636704 -1.0625 20.625 C-1.05748572 22.39843627 -1.05292269 24.17187387 -1.04882812 25.9453125 C-1.03779164 30.29690782 -1.02052325 34.6484395 -1 39 C0.65 39 2.3 39 4 39 C4.33 26.79 4.66 14.58 5 2 C5.33 2 5.66 2 6 2 C6 14.21 6 26.42 6 39 C7.485 39.495 7.485 39.495 9 40 C4.74351031 42.12824485 0.67402167 42.91695217 -4 42 C-10.7912938 39.09092446 -15.33487924 35.3844039 -19 29 C-20.85958882 23.08312647 -20.99918333 16.47500146 -18.5 10.75 C-14.50677162 3.66848348 -7.90792466 -0.17191141 0 0 Z " fill="#EB1A20" transform="translate(89,15)"/>
<path d="M0 0 C79.2 0 158.4 0 240 0 C240 0.33 240 0.66 240 1 C161.79 1 83.58 1 3 1 C3 23.11 3 45.22 3 68 C2.01 68 1.02 68 0 68 C0 45.56 0 23.12 0 0 Z " fill="#231F20" transform="translate(0,0)"/>
<path d="M0 0 C8.58 0 17.16 0 26 0 C26 0.66 26 1.32 26 2 C24.35 2 22.7 2 21 2 C21 13.88 21 25.76 21 38 C29.37851609 37.83127294 29.37851609 37.83127294 32.875 34.875 C35.26751757 31.63806446 36.5991555 28.76016155 38 25 C38.66 25 39.32 25 40 25 C40 30.28 40 35.56 40 41 C26.8 41 13.6 41 0 41 C0 40.67 0 40.34 0 40 C6.27 40 12.54 40 19 40 C19 27.46 19 14.92 19 2 C14.38 2 9.76 2 5 2 C5 14.21 5 26.42 5 39 C3.35 39 1.7 39 0 39 C1.98 38.505 1.98 38.505 4 38 C4 26.12 4 14.24 4 2 C2.68 2 1.36 2 0 2 C0 1.34 0 0.68 0 0 Z " fill="#EB2D33" transform="translate(194,15)"/>
<path d="M0 0 C1.65 0 3.3 0 5 0 C5 12.87 5 25.74 5 39 C3.35 39 1.7 39 0 39 C-1.81565436 37.18434564 -1.12861899 34.68730038 -1.13894653 32.27111816 C-1.1369223 31.47008667 -1.13489807 30.66905518 -1.1328125 29.84375 C-1.13376923 29.02628296 -1.13472595 28.20881592 -1.13571167 27.36657715 C-1.13639345 25.63484622 -1.13453929 23.90311276 -1.13037109 22.17138672 C-1.12502279 19.51133518 -1.13031612 16.8514525 -1.13671875 14.19140625 C-1.13605797 12.51302046 -1.1347768 10.83463477 -1.1328125 9.15625 C-1.13483673 8.35521851 -1.13686096 7.55418701 -1.13894653 6.72888184 C-1.11495079 1.11495079 -1.11495079 1.11495079 0 0 Z " fill="#FDF7F7" transform="translate(88,16)"/>
<path d="M0 0 C5.28 0 10.56 0 16 0 C16 5.94 16 11.88 16 18 C15.67 18 15.34 18 15 18 C15 12.39 15 6.78 15 1 C10.71 1 6.42 1 2 1 C2 13.21 2 25.42 2 38 C6.29 38 10.58 38 15 38 C15 32.06 15 26.12 15 20 C15.33 20 15.66 20 16 20 C16 25.94 16 31.88 16 38 C23.18010841 38.59628479 23.18010841 38.59628479 26 37 C28.3400417 37.28241883 30.67504723 37.61250787 33 38 C33 35.03 33 32.06 33 29 C33.33 29 33.66 29 34 29 C34 32.63 34 36.26 34 40 C21.46 40 8.92 40 -4 40 C-4 39.34 -4 38.68 -4 38 C-2.68 38 -1.36 38 0 38 C0 25.46 0 12.92 0 0 Z " fill="#EA0B11" transform="translate(117,16)"/>
<path d="M0 0 C0.33 0.99 0.66 1.98 1 3 C1.66 3 2.32 3 3 3 C3 24.45 3 45.9 3 68 C2.01 68 1.02 68 0 68 C0 45.56 0 23.12 0 0 Z " fill="#191617" transform="translate(0,0)"/>
<path d="M0 0 C12.54 0 25.08 0 38 0 C38 4.62 38 9.24 38 14 C37.34 14 36.68 14 36 14 C35.69707031 13.38511719 35.39414063 12.77023438 35.08203125 12.13671875 C31.86553467 5.77129015 31.86553467 5.77129015 26 2 C23.525 1.505 23.525 1.505 21 1 C21 6.94 21 12.88 21 19 C20.67 19 20.34 19 20 19 C20 13.06 20 7.12 20 1 C13.4 1 6.8 1 0 1 C0 0.67 0 0.34 0 0 Z " fill="#E82025" transform="translate(113,15)"/>
<path d="M0 0 C1.65 0 3.3 0 5 0 C3.68 0.33 2.36 0.66 1 1 C1 6.28 1 11.56 1 17 C7.29464599 16.14649373 7.29464599 16.14649373 12.375 12.75 C14.06499752 9.8900042 15.59897236 7.01220942 17 4 C17.66 4 18.32 4 19 4 C19 9.28 19 14.56 19 20 C18.34 19.34 17.68 18.68 17 18 C12.34805286 17.65783765 12.34805286 17.65783765 8 19 C5.36 18.67 2.72 18.34 0 18 C0 12.06 0 6.12 0 0 Z " fill="#EB4A50" transform="translate(133,36)"/>
<path d="M0 0 C0.66 0 1.32 0 2 0 C2 7.92 2 15.84 2 24 C0.35 24 -1.3 24 -3 24 C-3.33 23.67 -3.66 23.34 -4 23 C-7.10085221 22.83958807 -10.18187579 22.74036598 -13.28515625 22.68359375 C-14.21597519 22.66281265 -15.14679413 22.64203156 -16.1058197 22.62062073 C-19.09130182 22.55502069 -22.07687484 22.49619198 -25.0625 22.4375 C-27.08138976 22.3943247 -29.1002702 22.35071075 -31.11914062 22.30664062 C-36.07933297 22.19932871 -41.03961709 22.09809112 -46 22 C-46 21.67 -46 21.34 -46 21 C-39.93107399 20.97530331 -33.86217717 20.95714158 -27.79321289 20.94506836 C-25.72810354 20.94003586 -23.66299776 20.93320931 -21.59790039 20.92456055 C-18.63166422 20.91244764 -15.66547511 20.90676089 -12.69921875 20.90234375 C-11.31158577 20.89460182 -11.31158577 20.89460182 -9.8959198 20.88670349 C-9.03525406 20.88662796 -8.17458832 20.88655243 -7.2878418 20.88647461 C-6.15199898 20.88314369 -6.15199898 20.88314369 -4.99320984 20.87974548 C-3 21 -3 21 0 22 C0 14.74 0 7.48 0 0 Z " fill="#353434" transform="translate(61,12)"/>
<path d="M0 0 C11.88 0 23.76 0 36 0 C36 0.33 36 0.66 36 1 C29.39803289 3.08483172 28.36921236 3.10548924 21 1 C21 6.94 21 12.88 21 19 C20.67 19 20.34 19 20 19 C20 13.06 20 7.12 20 1 C13.4 1 6.8 1 0 1 C0 0.67 0 0.34 0 0 Z " fill="#E63F45" transform="translate(113,15)"/>
<path d="M0 0 C0.66 0 1.32 0 2 0 C2 5.28 2 10.56 2 16 C1.34 15.34 0.68 14.68 0 14 C-3.08347826 13.83318891 -3.08347826 13.83318891 -6 14 C-5.54625 13.525625 -5.0925 13.05125 -4.625 12.5625 C-2.63128316 9.4185619 -2.10639405 6.55269093 -1.4296875 2.92578125 C-1 1 -1 1 0 0 Z " fill="#EA1E25" transform="translate(232,40)"/>
<path d="M0 0 C0.33 0 0.66 0 1 0 C1 12.21 1 24.42 1 37 C1.99 37.33 2.98 37.66 4 38 C3 39 3 39 0.4375 39.0625 C-0.366875 39.041875 -1.17125 39.02125 -2 39 C-1.67 38.34 -1.34 37.68 -1 37 C-0.84308093 34.23068632 -0.74156866 31.48265893 -0.68359375 28.7109375 C-0.66281265 27.89251373 -0.64203156 27.07408997 -0.62062073 26.23086548 C-0.55515188 23.61233034 -0.49625274 20.99369361 -0.4375 18.375 C-0.39431224 16.60155193 -0.35069786 14.82811419 -0.30664062 13.0546875 C-0.19947324 8.70322954 -0.09819831 4.35166923 0 0 Z " fill="#EB0203" transform="translate(94,17)"/>
<path d="M0 0 C0.99 0 1.98 0 3 0 C3 4.95 3 9.9 3 15 C2.01 14.67 1.02 14.34 0 14 C-1.1875 10.9375 -1.1875 10.9375 -2 8 C-1.01 8.495 -1.01 8.495 0 9 C0 6.03 0 3.06 0 0 Z " fill="#E8292D" transform="translate(190,14)"/>
<path d="M0 0 C0.66 0 1.32 0 2 0 C2 5.94 2 11.88 2 18 C1.34 18 0.68 18 0 18 C-0.99 15.36 -1.98 12.72 -3 10 C-1.68 10.33 -0.36 10.66 1 11 C0.67 7.37 0.34 3.74 0 0 Z " fill="#E91017" transform="translate(141,26)"/>
<path d="M0 0 C0.66 0 1.32 0 2 0 C1.06149343 6.04815346 -0.29364487 9.2194137 -5.1796875 13.01171875 C-7 14 -7 14 -9.9375 13.875 C-10.9584375 13.441875 -10.9584375 13.441875 -12 13 C-11.443125 12.731875 -10.88625 12.46375 -10.3125 12.1875 C-9.549375 11.795625 -8.78625 11.40375 -8 11 C-6.7315625 10.443125 -6.7315625 10.443125 -5.4375 9.875 C-1.87070891 7.13131454 -1.32577332 4.25643013 0 0 Z " fill="#E8181D" transform="translate(191,42)"/>
<path d="M0 0 C0.66 0 1.32 0 2 0 C2 5.28 2 10.56 2 16 C1.67 16 1.34 16 1 16 C0.67 13.36 0.34 10.72 0 8 C-0.99 8.495 -0.99 8.495 -2 9 C-1.125 1.125 -1.125 1.125 0 0 Z " fill="#EC4145" transform="translate(150,40)"/>
<path d="M0 0 C3.14737182 0.69941596 6.02588876 1.76078698 9 3 C9 3.33 9 3.66 9 4 C1.25 4.125 1.25 4.125 -1 3 C-0.67 2.01 -0.34 1.02 0 0 Z " fill="#E93B42" transform="translate(84,53)"/>
<path d="M0 0 C1.65 0 3.3 0 5 0 C5 2.64 5 5.28 5 8 C4.34 8 3.68 8 3 8 C2.01 5.36 1.02 2.72 0 0 Z " fill="#EB181F" transform="translate(144,17)"/>
<path d="M0 0 C0 0.66 0 1.32 0 2 C-2.97 2 -5.94 2 -9 2 C-9.33 1.34 -9.66 0.68 -10 0 C-6.30458414 -0.95024979 -3.69541586 -0.95024979 0 0 Z " fill="#EA2A2D" transform="translate(181,55)"/>
</svg>
